<?xml version="1.0" encoding="UTF-8" standalone="no"?><svg xmlns="http://www.w3.org/2000/svg" xmlns:xlink="http://www.w3.org/1999/xlink" contentScriptType="application/ecmascript" contentStyleType="text/css" height="761px" preserveAspectRatio="none" style="width:579px;height:761px;" version="1.1" viewBox="0 0 579 761" width="579px" zoomAndPan="magnify"><defs><filter height="300%" id="f1tqig0u0br7c8" width="300%" x="-1" y="-1"><feGaussianBlur result="blurOut" stdDeviation="2.0"/><feColorMatrix in="blurOut" result="blurOut2" type="matrix" values="0 0 0 0 0 0 0 0 0 0 0 0 0 0 0 0 0 0 .4 0"/><feOffset dx="4.0" dy="4.0" in="blurOut2" result="blurOut3"/><feBlend in="SourceGraphic" in2="blurOut3" mode="normal"/></filter></defs><g><!--MD5=[074320af1434d570fa30309cf4d2dc80]
cluster Twelve-Factor App methodology--><polygon fill="#FFFFFF" filter="url(#f1tqig0u0br7c8)" points="6,16,231,16,238,38.2969,241,38.2969,241,749,6,749,6,16" style="stroke: #000000; stroke-width: 1.5;"/><line style="stroke: #000000; stroke-width: 1.5;" x1="6" x2="238" y1="38.2969" y2="38.2969"/><text fill="#000000" font-family="sans-serif" font-size="14" font-weight="bold" lengthAdjust="spacingAndGlyphs" textLength="219" x="10" y="30.9951">Twelve-Factor App methodology</text><!--MD5=[814d1445822147ca3c7e6c56c04e0a5f]
cluster Boehm's Quality Factors--><polygon fill="#FFFFFF" filter="url(#f1tqig0u0br7c8)" points="375,197,547,197,554,219.2969,557,219.2969,557,621,375,621,375,197" style="stroke: #000000; stroke-width: 1.5;"/><line style="stroke: #000000; stroke-width: 1.5;" x1="375" x2="554" y1="219.2969" y2="219.2969"/><text fill="#000000" font-family="sans-serif" font-size="14" font-weight="bold" lengthAdjust="spacingAndGlyphs" textLength="166" x="379" y="211.9951">Boehm's Quality Factors</text><ellipse cx="123.6335" cy="177.0236" fill="#FEFECE" filter="url(#f1tqig0u0br7c8)" rx="46.1335" ry="14.5236" style="stroke: #A80036; stroke-width: 1.5;"/><text fill="#000000" font-family="sans-serif" font-size="14" lengthAdjust="spacingAndGlyphs" textLength="61" x="93.1335" y="181.6721">Codebase</text><ellipse cx="123.7036" cy="58.1407" fill="#FEFECE" filter="url(#f1tqig0u0br7c8)" rx="63.7036" ry="15.1407" style="stroke: #A80036; stroke-width: 1.5;"/><text fill="#000000" font-family="sans-serif" font-size="14" lengthAdjust="spacingAndGlyphs" textLength="90" x="78.7036" y="62.7892">Dependencies</text><ellipse cx="123.2843" cy="118.0236" fill="#FEFECE" filter="url(#f1tqig0u0br7c8)" rx="31.2843" ry="14.5236" style="stroke: #A80036; stroke-width: 1.5;"/><text fill="#000000" font-family="sans-serif" font-size="14" lengthAdjust="spacingAndGlyphs" textLength="40" x="103.2843" y="122.6721">Config</text><ellipse cx="123.6672" cy="303.1334" fill="#FEFECE" filter="url(#f1tqig0u0br7c8)" rx="68.6672" ry="16.1334" style="stroke: #A80036; stroke-width: 1.5;"/><text fill="#000000" font-family="sans-serif" font-size="14" lengthAdjust="spacingAndGlyphs" textLength="103" x="72.1672" y="307.7819">Backing services</text><ellipse cx="123.3548" cy="239.171" fill="#FEFECE" filter="url(#f1tqig0u0br7c8)" rx="76.3548" ry="17.671" style="stroke: #A80036; stroke-width: 1.5;"/><text fill="#000000" font-family="sans-serif" font-size="14" lengthAdjust="spacingAndGlyphs" textLength="122" x="62.3548" y="243.8194">Build, Release, Run</text><ellipse cx="123.3406" cy="364.0236" fill="#FEFECE" filter="url(#f1tqig0u0br7c8)" rx="46.8406" ry="14.5236" style="stroke: #A80036; stroke-width: 1.5;"/><text fill="#000000" font-family="sans-serif" font-size="14" lengthAdjust="spacingAndGlyphs" textLength="62" x="92.3406" y="368.6721">Processes</text><ellipse cx="123.6543" cy="423.0236" fill="#FEFECE" filter="url(#f1tqig0u0br7c8)" rx="58.1543" ry="14.5236" style="stroke: #A80036; stroke-width: 1.5;"/><text fill="#000000" font-family="sans-serif" font-size="14" lengthAdjust="spacingAndGlyphs" textLength="78" x="84.6543" y="427.6721">Port binding</text><ellipse cx="123.3614" cy="667.0236" fill="#FEFECE" filter="url(#f1tqig0u0br7c8)" rx="58.8614" ry="14.5236" style="stroke: #A80036; stroke-width: 1.5;"/><text fill="#000000" font-family="sans-serif" font-size="14" lengthAdjust="spacingAndGlyphs" textLength="79" x="83.8614" y="671.6721">Concurrency</text><ellipse cx="123.2756" cy="726.0236" fill="#FEFECE" filter="url(#f1tqig0u0br7c8)" rx="60.2756" ry="14.5236" style="stroke: #A80036; stroke-width: 1.5;"/><text fill="#000000" font-family="sans-serif" font-size="14" lengthAdjust="spacingAndGlyphs" textLength="81" x="82.7756" y="730.6721">Disposability</text><ellipse cx="123.3859" cy="542.9772" fill="#FEFECE" filter="url(#f1tqig0u0br7c8)" rx="67.8859" ry="15.9772" style="stroke: #A80036; stroke-width: 1.5;"/><text fill="#000000" font-family="sans-serif" font-size="14" lengthAdjust="spacingAndGlyphs" textLength="101" x="72.8859" y="547.6256">Dev/prod parity</text><ellipse cx="123.299" cy="482.0236" fill="#FEFECE" filter="url(#f1tqig0u0br7c8)" rx="22.799" ry="14.5236" style="stroke: #A80036; stroke-width: 1.5;"/><text fill="#000000" font-family="sans-serif" font-size="14" lengthAdjust="spacingAndGlyphs" textLength="28" x="109.299" y="486.6721">Logs</text><ellipse cx="123.6456" cy="606.0291" fill="#FEFECE" filter="url(#f1tqig0u0br7c8)" rx="70.6456" ry="16.5291" style="stroke: #A80036; stroke-width: 1.5;"/><text fill="#000000" font-family="sans-serif" font-size="14" lengthAdjust="spacingAndGlyphs" textLength="108" x="69.6456" y="610.6776">Admin processes</text><ellipse cx="465.669" cy="480.0236" fill="#FEFECE" filter="url(#f1tqig0u0br7c8)" rx="49.669" ry="14.5236" style="stroke: #A80036; stroke-width: 1.5;"/><text fill="#000000" font-family="sans-serif" font-size="14" lengthAdjust="spacingAndGlyphs" textLength="66" x="432.669" y="484.6721">Portability</text><ellipse cx="465.5477" cy="539.0236" fill="#FEFECE" filter="url(#f1tqig0u0br7c8)" rx="47.5477" ry="14.5236" style="stroke: #A80036; stroke-width: 1.5;"/><text fill="#000000" font-family="sans-serif" font-size="14" lengthAdjust="spacingAndGlyphs" textLength="63" x="434.0477" y="543.6721">Reliability</text><ellipse cx="465.4264" cy="598.0236" fill="#FEFECE" filter="url(#f1tqig0u0br7c8)" rx="45.4264" ry="14.5236" style="stroke: #A80036; stroke-width: 1.5;"/><text fill="#000000" font-family="sans-serif" font-size="14" lengthAdjust="spacingAndGlyphs" textLength="60" x="435.4264" y="602.6721">Efficiency</text><ellipse cx="465.3909" cy="421.0236" fill="#FEFECE" filter="url(#f1tqig0u0br7c8)" rx="41.8909" ry="14.5236" style="stroke: #A80036; stroke-width: 1.5;"/><text fill="#000000" font-family="sans-serif" font-size="14" lengthAdjust="spacingAndGlyphs" textLength="55" x="437.8909" y="425.6721">Usability</text><ellipse cx="465.4619" cy="362.0236" fill="#FEFECE" filter="url(#f1tqig0u0br7c8)" rx="48.9619" ry="14.5236" style="stroke: #A80036; stroke-width: 1.5;"/><text fill="#000000" font-family="sans-serif" font-size="14" lengthAdjust="spacingAndGlyphs" textLength="65" x="432.9619" y="366.6721">Testability</text><ellipse cx="465.6576" cy="240.9315" fill="#FEFECE" filter="url(#f1tqig0u0br7c8)" rx="72.6576" ry="16.9315" style="stroke: #A80036; stroke-width: 1.5;"/><text fill="#000000" font-family="sans-serif" font-size="14" lengthAdjust="spacingAndGlyphs" textLength="113" x="409.1576" y="245.5799">Understandability</text><ellipse cx="465.5685" cy="303.0236" fill="#FEFECE" filter="url(#f1tqig0u0br7c8)" rx="59.5685" ry="14.5236" style="stroke: #A80036; stroke-width: 1.5;"/><text fill="#000000" font-family="sans-serif" font-size="14" lengthAdjust="spacingAndGlyphs" textLength="80" x="425.5685" y="307.6721">Modifiability</text><!--MD5=[f57577ad07e678c5bcce19f193184683]
link 1 to test--><path d="M166.4701,182.1979 C189.6031,186.2967 218.0219,193.4975 241,206 C312.8076,245.0708 304.7729,290.1549 375,332 C389.1808,340.4497 406.0469,346.8687 421.3542,351.557 " fill="none" id="1-&gt;test" style="stroke: #A80036; stroke-width: 1.0;"/><polygon fill="#A80036" points="426.4795,353.081,418.993,346.6817,421.6869,351.6559,416.7127,354.3498,426.4795,353.081" style="stroke: #A80036; stroke-width: 1.0;"/><!--MD5=[61740ed65fe6c834ba48f45cbe4c3e6f]
link 1 to modi--><path d="M163.0514,184.4726 C186.1574,189.4003 215.6633,196.6706 241,206 C303.4839,229.0076 313.4622,247.57 375,273 C390.256,279.3044 407.3596,285.2496 422.5562,290.1587 " fill="none" id="1-&gt;modi" style="stroke: #A80036; stroke-width: 1.0;"/><polygon fill="#A80036" points="427.6313,291.7829,420.2787,285.2301,422.8692,290.2589,417.8404,292.8494,427.6313,291.7829" style="stroke: #A80036; stroke-width: 1.0;"/><!--MD5=[a3dad158e28c3f8c272c0b6a51e3a911]
link 2 to reli--><path d="M185.0718,61.9336 C205.0442,66.0476 225.9158,73.7688 241,88 C383.8271,222.7511 236.9837,369.3256 375,509 C386.1844,520.3188 401.7307,527.3672 416.7858,531.7563 " fill="none" id="2-&gt;reli" style="stroke: #A80036; stroke-width: 1.0;"/><polygon fill="#A80036" points="421.8656,533.1451,414.2392,526.9131,417.0426,531.8264,412.1293,534.6298,421.8656,533.1451" style="stroke: #A80036; stroke-width: 1.0;"/><!--MD5=[47ecbb9fb8709cbb659dfc5bb1d9946d]
link 2 to unde--><path d="M174.5457,66.9742 C195.6783,71.7163 220.0844,78.5568 241,88 C321.0501,124.1421 403.429,188.6589 442.3931,221.1475 " fill="none" id="2-&gt;unde" style="stroke: #A80036; stroke-width: 1.0;"/><polygon fill="#A80036" points="446.4772,224.5684,442.1462,215.7229,442.6442,221.3578,437.0093,221.8558,446.4772,224.5684" style="stroke: #A80036; stroke-width: 1.0;"/><!--MD5=[f82c2b4802cc39934c39d66fe21268cf]
link 2 to modi--><path d="M180.9221,64.4658 C201.1963,68.7847 223.3263,75.9876 241,88 C324.9665,145.07 293.0854,213.0221 375,273 C386.6567,281.535 400.8847,287.7374 414.5757,292.2056 " fill="none" id="2-&gt;modi" style="stroke: #A80036; stroke-width: 1.0;"/><polygon fill="#A80036" points="419.5898,293.7744,412.195,287.2693,414.818,292.2813,409.806,294.9042,419.5898,293.7744" style="stroke: #A80036; stroke-width: 1.0;"/><!--MD5=[2daac30ea76661880dd4cc6eed99e546]
link 3 to test--><path d="M154.8231,119.8509 C179.9691,122.6453 215.2115,129.6227 241,147 C325.1943,203.7334 293.0854,272.0221 375,332 C387.9588,341.4884 404.0956,348.094 419.1395,352.6389 " fill="none" id="3-&gt;test" style="stroke: #A80036; stroke-width: 1.0;"/><polygon fill="#A80036" points="424.1933,354.1024,416.6612,347.7568,419.3906,352.7116,414.4358,355.441,424.1933,354.1024" style="stroke: #A80036; stroke-width: 1.0;"/><!--MD5=[69c84a421eb3866c21021a0950ff56b1]
link 3 to modi--><path d="M154.2583,121.23 C178.9173,124.8171 213.777,132.1878 241,147 C312.8076,186.0708 304.7729,231.1549 375,273 C388.031,280.7646 403.3295,286.8144 417.6023,291.3823 " fill="none" id="3-&gt;modi" style="stroke: #A80036; stroke-width: 1.0;"/><polygon fill="#A80036" points="422.3986,292.8749,414.9936,286.3813,417.6244,291.3892,412.6165,294.02,422.3986,292.8749" style="stroke: #A80036; stroke-width: 1.0;"/><!--MD5=[c9c9adee00254ff79bc40a13279895f9]
link 4 to modi--><path d="M192.2974,303 C253.0766,303 341.0648,303 400.6329,303 " fill="none" id="4-&gt;modi" style="stroke: #A80036; stroke-width: 1.0;"/><polygon fill="#A80036" points="405.9472,303,396.9472,299,400.9472,303,396.9472,307,405.9472,303" style="stroke: #A80036; stroke-width: 1.0;"/><!--MD5=[f92384d61503ea76ddc39ec7e6bd8985]
link 4 to port--><path d="M179.5418,312.3208 C199.6716,317.0598 222.0631,324.0028 241,334 C310.6595,370.775 306.5166,411.0788 375,450 C389.3515,458.1564 406.2553,464.5106 421.545,469.2291 " fill="none" id="4-&gt;port" style="stroke: #A80036; stroke-width: 1.0;"/><polygon fill="#A80036" points="426.6623,470.7668,419.1943,464.3458,421.8738,469.3278,416.8919,472.0073,426.6623,470.7668" style="stroke: #A80036; stroke-width: 1.0;"/><!--MD5=[70c3a21d603722bfab828bcd4a30f019]
link 5 to port--><path d="M186.8725,248.813 C205.4203,253.7228 224.9949,261.0586 241,272 C322.7463,327.8835 294.569,392.2394 375,450 C387.9249,459.2819 403.9045,465.8231 418.822,470.3732 " fill="none" id="5-&gt;port" style="stroke: #A80036; stroke-width: 1.0;"/><polygon fill="#A80036" points="423.8344,471.841,416.3214,465.4727,419.0359,470.4357,414.073,473.1502,423.8344,471.841" style="stroke: #A80036; stroke-width: 1.0;"/><!--MD5=[6ddb9caa6b112f5977704fd9fac6ec86]
link 5 to test--><path d="M175.4963,251.8364 C196.107,257.3816 219.8818,264.3536 241,272 C302.3551,294.2154 314.1755,308.3705 375,332 C391.6394,338.4642 410.3201,344.806 426.3694,349.9814 " fill="none" id="5-&gt;test" style="stroke: #A80036; stroke-width: 1.0;"/><polygon fill="#A80036" points="431.2605,351.549,423.9109,344.9928,426.4991,350.0229,421.4691,352.6111,431.2605,351.549" style="stroke: #A80036; stroke-width: 1.0;"/><!--MD5=[9bd5287d370852c925d9c92dd2fe4488]
link 5 to modi--><path d="M183.0719,250.1479 C248.0363,262.305 351.005,281.574 413.0277,293.1806 " fill="none" id="5-&gt;modi" style="stroke: #A80036; stroke-width: 1.0;"/><polygon fill="#A80036" points="418.1597,294.141,410.0491,288.5537,413.245,293.2213,408.5775,296.4172,418.1597,294.141" style="stroke: #A80036; stroke-width: 1.0;"/><!--MD5=[49c46d2c6c87ffa973f3ba509497485c]
link 6 to port--><path d="M162.847,372.0552 C185.8838,377.1802 215.3887,384.4535 241,393 C302.3918,413.4864 314.455,427.1319 375,450 C391.6994,456.3074 410.3896,462.6246 426.4297,467.8239 " fill="none" id="6-&gt;port" style="stroke: #A80036; stroke-width: 1.0;"/><polygon fill="#A80036" points="431.3174,469.4004,423.9798,462.8308,426.5588,467.8655,421.524,470.4445,431.3174,469.4004" style="stroke: #A80036; stroke-width: 1.0;"/><!--MD5=[1eecd4364f7e389a57f57298e3ceb58a]
link 8 to port--><path d="M174.7974,659.8143 C196.2032,655.3478 220.7457,648.2297 241,637 C313.0301,597.0642 304.2028,551.0829 375,509 C388.8888,500.7443 405.3949,494.5611 420.4835,490.0729 " fill="none" id="8-&gt;port" style="stroke: #A80036; stroke-width: 1.0;"/><polygon fill="#A80036" points="425.5404,488.6153,415.7846,487.2645,420.736,490.0001,418.0004,494.9515,425.5404,488.6153" style="stroke: #A80036; stroke-width: 1.0;"/><!--MD5=[8e50f2bf271ed0d042f6e125b80e0292]
link 8 to effi--><path d="M169.2688,657.7659 C235.4367,644.4163 356.9816,619.8941 421.9092,606.7946 " fill="none" id="8-&gt;effi" style="stroke: #A80036; stroke-width: 1.0;"/><polygon fill="#A80036" points="426.8664,605.7945,417.253,603.6537,421.9652,606.7835,418.8354,611.4956,426.8664,605.7945" style="stroke: #A80036; stroke-width: 1.0;"/><!--MD5=[ca7ffc178ad2ef2cc51600fb27eda1b9]
link 9 to reli--><path d="M176.573,719.0014 C197.5587,714.7091 221.3152,707.8609 241,697 C313.3815,657.064 304.0206,610.3781 375,568 C389.1273,559.5653 405.9816,553.3014 421.2944,548.7969 " fill="none" id="9-&gt;reli" style="stroke: #A80036; stroke-width: 1.0;"/><polygon fill="#A80036" points="426.4221,547.3361,416.6706,545.9549,421.6134,548.706,418.8623,553.6488,426.4221,547.3361" style="stroke: #A80036; stroke-width: 1.0;"/><!--MD5=[a85fb880731d286fd4749bda00994a61]
link 9 to port--><path d="M179.4634,720.4573 C200.1439,716.3687 222.925,709.2801 241,697 C325.8731,639.3376 292.1401,569.5196 375,509 C387.6885,499.7325 403.4608,493.3469 418.2667,488.9815 " fill="none" id="9-&gt;port" style="stroke: #A80036; stroke-width: 1.0;"/><polygon fill="#A80036" points="423.2449,487.5773,413.497,486.1709,418.4327,488.9347,415.6689,493.8705,423.2449,487.5773" style="stroke: #A80036; stroke-width: 1.0;"/><!--MD5=[7af7046334b805fcce1bb622d975e413]
link 9 to effi--><path d="M169.7898,716.5252 C191.6432,711.5587 217.9312,704.8669 241,697 C313.2073,672.3761 394.2615,633.7513 436.4428,612.7677 " fill="none" id="9-&gt;effi" style="stroke: #A80036; stroke-width: 1.0;"/><polygon fill="#A80036" points="441.1438,610.422,431.3047,610.8612,436.6698,612.6544,434.8766,618.0195,441.1438,610.422" style="stroke: #A80036; stroke-width: 1.0;"/><!--MD5=[6067203b928ddeac2ee4440a2f6674bd]
link 10 to port--><path d="M177.3137,533.0869 C243.6388,520.8692 355.283,500.3031 418.3747,488.681 " fill="none" id="10-&gt;port" style="stroke: #A80036; stroke-width: 1.0;"/><polygon fill="#A80036" points="423.5785,487.7224,414.0027,485.4194,418.6613,488.6284,415.4523,493.287,423.5785,487.7224" style="stroke: #A80036; stroke-width: 1.0;"/><!--MD5=[374a0fbe3062615ba5f5f39896b45657]
link 10 to test--><path d="M178.7433,533.521 C199.1123,528.6164 221.8696,521.4042 241,511 C311.2311,472.8044 305.6304,430.7387 375,391 C389.1484,382.8951 405.8603,376.7259 421.0479,372.2059 " fill="none" id="10-&gt;test" style="stroke: #A80036; stroke-width: 1.0;"/><polygon fill="#A80036" points="426.1342,370.7359,416.3774,369.3924,421.3308,372.1243,418.5989,377.0778,426.1342,370.7359" style="stroke: #A80036; stroke-width: 1.0;"/><!--MD5=[55c65f421a3f5702c1a9dfdc129fde42]
link 10 to reli--><path d="M191.4771,542.2049 C256.525,541.4442 353.2821,540.3125 412.7192,539.6173 " fill="none" id="10-&gt;reli" style="stroke: #A80036; stroke-width: 1.0;"/><polygon fill="#A80036" points="417.9969,539.5556,408.9507,535.6613,412.9972,539.6142,409.0444,543.6608,417.9969,539.5556" style="stroke: #A80036; stroke-width: 1.0;"/><!--MD5=[246d76f9fee1c184b463b816f8d782c5]
link 10 to modi--><path d="M182.3427,534.933 C202.1961,530.2189 223.6901,522.7673 241,511 C323.1857,455.13 294.0693,389.673 375,332 C386.4879,323.8135 400.3971,317.8605 413.8289,313.5622 " fill="none" id="10-&gt;modi" style="stroke: #A80036; stroke-width: 1.0;"/><polygon fill="#A80036" points="418.7505,312.0525,408.9731,310.868,413.9704,313.5189,411.3194,318.5162,418.7505,312.0525" style="stroke: #A80036; stroke-width: 1.0;"/><!--MD5=[0930fcf29d46a1918b0a6efac11830d3]
link 11 to port--><path d="M146.7382,481.8641 C200.4737,481.5499 334.5267,480.7659 410.5727,480.3212 " fill="none" id="11-&gt;port" style="stroke: #A80036; stroke-width: 1.0;"/><polygon fill="#A80036" points="415.9459,480.2898,406.9226,476.3426,410.946,480.3191,406.9695,484.3424,415.9459,480.2898" style="stroke: #A80036; stroke-width: 1.0;"/><!--MD5=[8cca2ca6ee2ec836be4e247e8b350ff2]
link 11 to test--><path d="M145.4999,477.6048 C169.3699,472.555 208.4322,463.4686 241,452 C302.721,430.2653 313.9602,414.5801 375,391 C391.3185,384.696 409.6445,378.6392 425.5155,373.7061 " fill="none" id="11-&gt;test" style="stroke: #A80036; stroke-width: 1.0;"/><polygon fill="#A80036" points="430.3573,372.2122,420.578,371.0437,425.5796,373.6864,422.9368,378.688,430.3573,372.2122" style="stroke: #A80036; stroke-width: 1.0;"/><!--MD5=[c97fbb4a6e1b71bab2662290211ba77f]
link 12 to reli--><path d="M177.6909,595.3837 C244.7417,582.248 357.69,560.1207 420.296,547.8558 " fill="none" id="12-&gt;reli" style="stroke: #A80036; stroke-width: 1.0;"/><polygon fill="#A80036" points="425.4545,546.8452,415.8533,544.6504,420.5478,547.8066,417.3916,552.5011,425.4545,546.8452" style="stroke: #A80036; stroke-width: 1.0;"/><!--MD5=[8a6924eb7ff00c95c24afdc39a7846dd]
@startuml
skinparam nodesep 30
skinparam ranksep 150
left to right direction

package "Twelve-Factor App methodology" {
  usecase "Codebase" as 1
  usecase "Dependencies" as 2
  usecase "Config" as 3
  usecase "Backing services" as 4
  usecase "Build, Release, Run" as 5
  usecase "Processes" as 6
  usecase "Port binding" as 7
  usecase "Concurrency" as 8
  usecase "Disposability" as 9
  usecase "Dev/prod parity" as 10
  usecase "Logs" as 11
  usecase "Admin processes" as 12
}

package "Boehm's Quality Factors" {
  usecase "Portability" as port
  usecase "Reliability" as reli
  usecase "Efficiency" as effi
  usecase "Usability" as usab 
  usecase "Testability" as test 
  usecase "Understandability" as unde
  usecase "Modifiability" as modi
}

1 - -> test
1 - -> modi
2 - -> reli
2 - -> unde
2 - -> modi
3 - -> test
3 - -> modi
4 - -> modi
4 - -> port
5 - -> port
5 - -> test
5 - -> modi
6 - -> port
8 - -> port
8 - -> effi
9 - -> reli
9 - -> port
9 - -> effi
10 - -> port
10 - -> test
10 - -> reli
10 - -> modi
11 - -> port
11 - -> test
12 - -> reli

@enduml

PlantUML version 1.2020.10(Sun May 17 09:35:57 GMT 2020)
(GPL source distribution)
Java Runtime: OpenJDK Runtime Environment
JVM: OpenJDK 64-Bit Server VM
Java Version: 1.8.0_212-b04
Operating System: Linux
Default Encoding: UTF-8
Language: en
Country: US
--></g></svg>